<svg xmlns="http://www.w3.org/2000/svg" xmlns:xlink="http://www.w3.org/1999/xlink" viewBox="0,0,256,256" width="20px" height="20px" fill-rule="nonzero"><g fill="#000000" fill-rule="nonzero" stroke="none" stroke-width="1" stroke-linecap="butt" stroke-linejoin="miter" stroke-miterlimit="10" stroke-dasharray="" stroke-dashoffset="0" font-family="none" font-weight="none" font-size="none" text-anchor="none" style="mix-blend-mode: normal"><g transform="scale(5.12,5.12)"><path d="M25,3c-4.60937,0 -7.6875,2.78125 -9.48828,5.4375c-1.66406,2.45313 -2.29297,4.68359 -2.39062,5.05078c-0.3125,0.28125 -1.12109,1.07813 -1.12109,2.51172v0.60938c-1.77734,0.91406 -3,2.76563 -3,4.89063c0,1.54688 0.64844,2.94531 1.6875,3.94922c-0.42578,0.57813 -0.6875,1.28516 -0.6875,2.05078v1h0.20313c0.07422,0.23047 0.17188,0.44531 0.28516,0.65625c-0.08984,0.09766 -0.16797,0.17578 -0.26562,0.3125c-0.35156,0.46875 -0.78125,1.18359 -1.16016,2.17578c0.01563,-0.03516 -0.11719,0.21094 -0.30469,0.48047c-0.19141,0.27734 -0.44531,0.61719 -0.69531,1.00391c-0.50391,0.77734 -1.0625,1.71875 -1.0625,2.87109c0,0.14844 0.03516,0.29688 0.09766,0.43359c0,0 0.51172,1.01172 1.73828,1.87891c0.55859,0.40234 1.28906,0.78516 2.19141,1.08984c0.01953,0.13672 0.02734,0.26563 0.05859,0.41016c0.20313,0.94141 0.88672,2.03906 2.08984,2.76563c0.1875,0.35938 0.60938,1.26563 1.60156,2.01953c0.33984,0.26172 0.75,0.49219 1.22266,0.69922v0.70313c-0.00391,0.35938 0.18359,0.69531 0.49609,0.87891c0.3125,0.17969 0.69531,0.17969 1.00781,0c0.3125,-0.18359 0.5,-0.51953 0.49609,-0.87891v-0.15234c0.59766,0.09375 1.25781,0.15234 2,0.15234c3.78516,0 5.96875,-1.74609 6.98828,-3.49609c0.96875,-1.66016 1,-3.22656 1,-3.39453c0.00391,-0.01953 0.16797,-1.27734 -0.31641,-2.85937c-0.48828,-1.59766 -1.65625,-3.59375 -4.15625,-5.10547c-3.58984,-2.17578 -8.80469,-2.14453 -8.80469,-2.14453h-1.21094c-0.82812,0 -1.5,-0.67187 -1.5,-1.5c0,-0.82812 0.67188,-1.5 1.5,-1.5h4.53516c1.16016,1.80078 3.17578,3 5.46484,3c3.57813,0 6.5,-2.92187 6.5,-6.5c0,-3.57812 -2.92187,-6.5 -6.5,-6.5c-1.85937,0 -3.53906,0.79297 -4.72656,2.05859c-1.01172,-1.25391 -2.55078,-2.05859 -4.27344,-2.05859c-0.16797,0 -0.33594,0.01172 -0.5,0.02734v-0.02734c0,-0.53125 0.65625,-1.25 0.65625,-1.25c0.15234,-0.12891 0.26172,-0.30469 0.3125,-0.5c0,0 0.60938,-2.34766 2.19922,-4.6875c1.58594,-2.33984 4.00781,-4.55859 7.82813,-4.5625c0,0 3.34766,0.03125 6.63672,1.33594c1.64453,0.64844 3.24609,1.60938 4.41797,2.98438c1.17188,1.37891 1.94922,3.16406 1.94922,5.67969c0,1.60547 -0.00781,3.23828 -0.48437,5.14453c-0.16406,-0.10156 -0.35156,-0.14844 -0.54687,-0.14453c-0.33984,0.01172 -0.65234,0.19531 -0.82812,0.48438l-3,5c-0.19531,0.30859 -0.21094,0.69922 -0.03906,1.01953c0.17578,0.32422 0.51172,0.52344 0.875,0.52734c0.36719,0 0.70313,-0.19922 0.88281,-0.51562l1.14063,-1.90625v2.39063c0,0.44922 0.30078,0.84375 0.73438,0.96094c0.43359,0.12109 0.89063,-0.0625 1.125,-0.44531l1.14063,-1.90625v2.39063c-0.00391,0.35938 0.18359,0.69531 0.49609,0.87891c0.3125,0.17969 0.69531,0.17969 1.00781,0c0.3125,-0.18359 0.5,-0.51953 0.49609,-0.87891v-6c0,-0.41016 -0.25,-0.77734 -0.62891,-0.92578c-0.37891,-0.15234 -0.8125,-0.05859 -1.09375,0.23828c0.71875,-2.46094 0.72266,-4.53906 0.72266,-6.3125c0,-2.94531 -0.97266,-5.26562 -2.42578,-6.97656c-1.45312,-1.70703 -3.35156,-2.81641 -5.20703,-3.54688c-3.71094,-1.46875 -7.36328,-1.47656 -7.36328,-1.47656zM14.5,18c1.33594,0 2.48828,0.74609 3.07813,1.83594c-0.36719,0.8125 -0.57812,1.71484 -0.57812,2.66406c0,0.51563 0.07031,1.01563 0.18359,1.5h-3.68359c-0.41797,0 -0.81641,0.08594 -1.1875,0.22266c-0.79687,-0.63672 -1.3125,-1.61328 -1.3125,-2.72266c0,-1.94531 1.55469,-3.5 3.5,-3.5zM23.5,18c2.49609,0 4.5,2.00391 4.5,4.5c0,2.49609 -2.00391,4.5 -4.5,4.5c-2.49609,0 -4.5,-2.00391 -4.5,-4.5c0,-2.49609 2.00391,-4.5 4.5,-4.5zM14,21c-0.55078,0 -1,0.44922 -1,1c0,0.55078 0.44922,1 1,1c0.55078,0 1,-0.44922 1,-1c0,-0.55078 -0.44922,-1 -1,-1zM25,22c-0.55078,0 -1,0.44922 -1,1c0,0.55078 0.44922,1 1,1c0.55078,0 1,-0.44922 1,-1c0,-0.55078 -0.44922,-1 -1,-1zM35.89453,29c-0.98828,0 -1.74609,0.34375 -2.21094,0.72656c-0.46875,0.38281 -0.69922,0.86719 -0.69922,0.86719c-0.22656,0.50391 0,1.09375 0.50391,1.32031c0.50391,0.22656 1.09766,0 1.32422,-0.50781c0,0 -0.01172,-0.01562 0.13672,-0.13281c0.14453,-0.11719 0.38672,-0.27344 0.94531,-0.27344c0.57422,0 0.71094,0.10938 0.83984,0.28125c0.12891,0.16797 0.26563,0.57422 0.26563,1.25c0,-0.04297 -0.14062,0.45703 -0.53516,0.81641c-0.39453,0.36328 -0.95703,0.65234 -1.71484,0.65234c-0.27344,0 -0.53516,0.10938 -0.72656,0.30859c-0.1875,0.19531 -0.28516,0.46094 -0.27344,0.73438c0,0 0.28125,7.50391 1.28516,11.21875c0.08594,0.35547 0.35547,0.63281 0.70703,0.73047c0.35156,0.09375 0.72656,-0.00781 0.98047,-0.26562c0.25391,-0.26172 0.34766,-0.64062 0.24219,-0.98828c-0.75781,-2.80469 -1.09375,-8.67969 -1.16016,-9.94141c0.79297,-0.19531 1.50781,-0.51172 2.00781,-0.97266c0.72266,-0.66016 1.1875,-1.39453 1.1875,-2.29297c0,-0.90625 -0.14062,-1.76562 -0.67187,-2.46484c-0.53516,-0.69922 -1.45312,-1.06641 -2.43359,-1.06641zM11.89063,30.58984c0.47656,0.25781 1.02344,0.41016 1.60938,0.41016h1.1875c0,0 4.99219,0.15625 7.79688,1.85547c2.07813,1.26172 2.90625,2.76563 3.27734,3.97656c0.36719,1.21094 0.25,2.03125 0.25,2.03125l-0.01172,0.07031v0.06641c0,0 -0.00781,1.24609 -0.73828,2.49609c-0.73047,1.25 -2.04687,2.50391 -5.26172,2.50391c-2.22266,0 -3.36328,-0.49609 -4.01172,-0.98828c-0.64844,-0.49609 -0.83203,-0.97656 -1.10937,-1.48437l-0.16406,-0.30859l-0.32422,-0.14062c-0.69141,-0.29297 -1.02344,-0.71875 -1.20703,-1.19531c0.5625,0.07031 1.16016,0.11719 1.81641,0.11719c2.83984,0 4.66406,-0.25391 5.81641,-0.52734c0.57422,-0.13672 0.98438,-0.27734 1.26172,-0.39453c0.27734,-0.11719 0.49219,-0.25781 0.49219,-0.25781c0.3125,-0.19531 0.48828,-0.54687 0.46484,-0.91406c-0.02734,-0.36719 -0.25,-0.69141 -0.58594,-0.84375c-0.33594,-0.15234 -0.72656,-0.10547 -1.01953,0.11719c0,0 0.03516,-0.01562 -0.13281,0.05469c-0.16406,0.07031 -0.46094,0.17969 -0.94141,0.29297c-0.95703,0.22656 -2.63281,0.47266 -5.35547,0.47266c-2.60156,0 -4.12109,-0.68359 -5.00781,-1.3125c-0.72656,-0.51953 -0.82031,-0.78516 -0.89453,-0.92187c0.06641,-0.41797 0.26563,-0.96875 0.64063,-1.54297c0.21484,-0.33203 0.44922,-0.65234 0.65625,-0.94922c0.20703,-0.29687 0.39453,-0.53516 0.54297,-0.91797c0.30859,-0.82031 0.64844,-1.36719 0.89063,-1.69922c0.04688,-0.05469 0.02734,-0.02344 0.0625,-0.06641z"></path></g></g></svg>