<svg xmlns="http://www.w3.org/2000/svg" xmlns:xlink="http://www.w3.org/1999/xlink" viewBox="0,0,256,256" width="20px" height="20px" fill-rule="nonzero"><g fill="#000000" fill-rule="nonzero" stroke="none" stroke-width="1" stroke-linecap="butt" stroke-linejoin="miter" stroke-miterlimit="10" stroke-dasharray="" stroke-dashoffset="0" font-family="none" font-weight="none" font-size="none" text-anchor="none" style="mix-blend-mode: normal"><g transform="scale(5.12,5.12)"><path d="M18.53125,3c-0.39062,-0.01172 -0.75,0.20313 -0.92578,0.55469l-0.87891,1.75781l-1.01953,-1.01953c-0.26562,-0.26562 -0.66016,-0.35938 -1.01953,-0.24219c-0.35547,0.11719 -0.61719,0.42578 -0.67578,0.79688l-1.95312,12.71094c-0.35547,0.33203 -1.05859,1.08984 -1.05859,2.44141v0.82422c-1.23047,1.18359 -2,2.84375 -2,4.67578c0,2.0625 0.97656,3.90234 2.48438,5.09375c-0.20703,0.87109 -0.49219,1.77734 -0.77734,2.625c-0.34766,1.04297 -0.69531,1.87891 -0.69531,2.78125c0,0.96875 0.58984,1.71875 1.28516,2.29297c0.69531,0.57422 1.57813,1.03906 2.55078,1.42969c1.30469,0.52734 2.76563,0.90625 4.16797,1.10547c-0.01562,0.07813 -0.01953,0.15625 -0.01562,0.23438c0,0 0.03516,0.69141 0.41406,1.40625c0.37891,0.71094 1.28906,1.51953 2.57031,1.52734c0.01563,0.03125 0.02734,0.06641 0.02734,0.07031l-0.01172,1.92969c-0.00781,0.35938 0.17969,0.69531 0.49219,0.87891c0.30859,0.18359 0.69531,0.18359 1.00781,0.00391c0.3125,-0.17969 0.50391,-0.51172 0.5,-0.875l0.01172,-2c0,-0.02344 0,-0.05078 -0.00391,-0.07812c0,0 -0.01953,-0.44141 -0.27344,-0.90234c-0.25,-0.46094 -0.91016,-1.02344 -1.73437,-1.02344c-0.58203,0 -0.66797,-0.18359 -0.82031,-0.46875c-0.125,-0.23828 -0.16016,-0.45312 -0.16797,-0.53125c3.11719,0 5.17969,-0.25391 6.49219,-0.51953c0.53516,-0.10937 0.92969,-0.22266 1.24609,-0.32422l0.55469,0.55078c0.25,0.26172 0.625,0.36719 0.97266,0.27344c0.35156,-0.08984 0.625,-0.36328 0.71484,-0.71484c0.09375,-0.34766 -0.01172,-0.72266 -0.27344,-0.97266l-0.95312,-0.94922c-0.02344,-0.02734 -0.04687,-0.05078 -0.07031,-0.07422l-0.97656,-0.97656c-0.1875,-0.19531 -0.44922,-0.30469 -0.71875,-0.30469c-0.35937,0.00391 -0.69141,0.19922 -0.87109,0.51172c-0.17578,0.31641 -0.16797,0.70313 0.01953,1.01172c-0.01953,0.00391 -0.01953,0.00391 -0.03906,0.00781c-1.15625,0.23438 -3.08984,0.48047 -6.09766,0.48047c-1.53906,0 -3.72266,-0.44922 -5.41797,-1.12891c-0.84375,-0.34375 -1.57031,-0.74609 -2.02344,-1.12109c-0.45312,-0.375 -0.55859,-0.65625 -0.55859,-0.75c0,-0.16016 0.24609,-1.10547 0.59375,-2.14453c0.23047,-0.68359 0.48438,-1.45312 0.70313,-2.24609c0.44141,0.16016 0.90234,0.27344 1.37891,0.33203c0.42188,0.61328 1.01563,1.05859 1.8125,1.05859h1.5c0.35938,0.00391 0.69531,-0.18359 0.87891,-0.49609c0.17969,-0.3125 0.17969,-0.69531 0,-1.00781c-0.18359,-0.3125 -0.51953,-0.5 -0.87891,-0.49609h-1.5c-0.28125,0 -0.5,-0.21875 -0.5,-0.5c0,-0.28125 0.21875,-0.5 0.5,-0.5h4c0.09766,0 0.19531,-0.01172 0.28906,-0.03906c1.1875,1.25 2.85938,2.03906 4.71094,2.03906c3.57813,0 6.5,-2.92187 6.5,-6.5c0,-3.57812 -2.92187,-6.5 -6.5,-6.5c-2.00781,0 -3.80859,0.92188 -5.00391,2.36328c-1.19531,-1.4375 -2.98828,-2.36328 -4.99609,-2.36328c-0.81641,0 -1.59375,0.16016 -2.31641,0.4375c0.19531,-0.36719 0.47266,-0.6875 0.47266,-0.6875c0.17969,-0.15234 0.29688,-0.36328 0.33203,-0.59766l1.69922,-11.05078l0.60547,0.60547c0.22656,0.22656 0.55078,0.33203 0.86719,0.28125c0.31641,-0.05078 0.58984,-0.25391 0.73438,-0.54297l0.68359,-1.36719l0.5625,0.9375c0.17188,0.27734 0.46484,0.46094 0.79297,0.48047c0.32422,0.02344 0.64453,-0.11719 0.84766,-0.37109l1.10156,-1.375l0.75781,1.26563c0.17188,0.27734 0.46484,0.46094 0.79297,0.48047c0.32422,0.02344 0.64453,-0.11719 0.84766,-0.37109l1.10156,-1.375l0.75781,1.26563c0.16016,0.26172 0.42969,0.4375 0.73828,0.47656c0.30469,0.03906 0.60938,-0.06641 0.82813,-0.28516l0.85547,-0.85547l0.48828,1.46484c0.10156,0.30859 0.35156,0.55078 0.66406,0.64453c0.31641,0.08984 0.65625,0.02344 0.91016,-0.17969l1.17188,-0.9375l0.21875,1.32031c0.05078,0.32422 0.26563,0.60547 0.56641,0.74219c0.29688,0.14063 0.64844,0.12109 0.93359,-0.04687l1.23828,-0.74609l0.26172,1.55078c0.05469,0.34375 0.28906,0.63281 0.61328,0.76563c0.32422,0.12891 0.69141,0.08203 0.96875,-0.12891l0.73047,-0.55078l0.19141,0.94531c0.05859,0.29297 0.24219,0.54297 0.50391,0.68359c0.26172,0.14063 0.57031,0.16016 0.84766,0.04688l0.56641,-0.22266c-3.72656,11.63672 -4.96484,18.33203 -5.28516,20.29688c-0.07031,0.00391 -0.23437,0.00391 -0.23437,0.00391c-0.36719,0.01953 -0.69141,0.23438 -0.84766,0.5625c-0.16016,0.32813 -0.12891,0.71875 0.08203,1.01563c0.21484,0.29688 0.57031,0.45703 0.92969,0.41406c0,0 0.60938,-0.03125 1.13672,0.12109c0.26563,0.07813 0.47656,0.19531 0.59375,0.31641c0.11328,0.11719 0.1875,0.22656 0.1875,0.56641c0,0.94141 -0.19922,1.16016 -0.375,1.28516c-0.17187,0.12891 -0.56641,0.21484 -1.125,0.21484c-0.20312,0 -0.97656,-0.35156 -0.97656,-0.35156c-0.30469,-0.19922 -0.69531,-0.21875 -1.01562,-0.05078c-0.32422,0.17188 -0.53125,0.50391 -0.53516,0.86719c-0.00781,0.36719 0.1875,0.70703 0.50391,0.88672c0,0 0.17969,0.12109 0.44531,0.25781c-0.25781,0.92969 -0.78516,3.16406 -0.86328,6.30078c-0.08594,0.04688 -0.13281,0.08203 -0.3125,0.14453c-0.58984,0.20313 -1.73047,0.44531 -3.74609,0.44531c-0.35937,-0.00391 -0.69531,0.18359 -0.87891,0.49609c-0.17969,0.3125 -0.17969,0.69531 0,1.00781c0.18359,0.3125 0.51953,0.5 0.87891,0.49609c2.17188,0 3.52734,-0.25781 4.39453,-0.55469c0.43359,-0.14844 0.74609,-0.30859 0.96484,-0.45703c0.21875,-0.14453 0.41797,-0.35937 0.41797,-0.35937c0.14453,-0.17578 0.22266,-0.39844 0.22266,-0.62891c0,-4.05078 0.77344,-6.21875 0.88672,-6.51172c0.60938,-0.02344 1.29688,-0.12891 1.92578,-0.58594c0.76172,-0.5625 1.1875,-1.59375 1.1875,-2.90234c0,-0.78516 -0.30078,-1.48828 -0.75,-1.95312c-0.34375,-0.36328 -0.74609,-0.56641 -1.13672,-0.71875c0.27344,-1.8125 1.49609,-8.88672 5.83594,-22.01562c0.12109,-0.36719 0.01953,-0.77344 -0.26562,-1.03906c-0.28125,-0.26562 -0.69531,-0.34375 -1.05469,-0.20312l-1.38281,0.55469l-0.26562,-1.32031c-0.06641,-0.33594 -0.30078,-0.61719 -0.62109,-0.73828c-0.32422,-0.125 -0.68359,-0.07422 -0.95703,0.13281l-0.6875,0.51172l-0.23047,-1.375c-0.05078,-0.32422 -0.26562,-0.60547 -0.56641,-0.74219c-0.29687,-0.14062 -0.64844,-0.12109 -0.93359,0.04688l-1.23828,0.74609l-0.26172,-1.55078c-0.05469,-0.35156 -0.29687,-0.64453 -0.625,-0.76953c-0.33203,-0.12891 -0.70703,-0.07031 -0.98437,0.15234l-1.37891,1.10156l-0.54687,-1.63672c-0.10937,-0.32813 -0.38281,-0.57813 -0.71875,-0.65625c-0.33594,-0.08203 -0.69141,0.01953 -0.9375,0.26563l-1.09375,1.09375l-0.83984,-1.40234c-0.17187,-0.27734 -0.46484,-0.46094 -0.79297,-0.48047c-0.32422,-0.02344 -0.64453,0.11719 -0.84766,0.37109l-1.10156,1.375l-0.75781,-1.26562c-0.17187,-0.27734 -0.46484,-0.46094 -0.79297,-0.48047c-0.32422,-0.02344 -0.64453,0.11719 -0.84766,0.37109l-1.10156,1.375l-0.75781,-1.26562c-0.17578,-0.28906 -0.48828,-0.47266 -0.82812,-0.48437zM15.5,21c1.67969,0 3.12891,0.92188 3.90234,2.27734c-0.25391,0.69531 -0.40234,1.44141 -0.40234,2.22266c0,0.88672 0.17969,1.73047 0.5,2.5h-3c-1.11328,0 -2.05469,0.75 -2.375,1.76563c-0.30859,-0.09766 -0.59766,-0.22656 -0.87109,-0.38281c-0.08984,-0.07031 -0.1875,-0.125 -0.29687,-0.16406c-1.18359,-0.80859 -1.95703,-2.16797 -1.95703,-3.71875c0,-2.49609 2.00391,-4.5 4.5,-4.5zM25.5,21c2.49609,0 4.5,2.00391 4.5,4.5c0,2.49609 -2.00391,4.5 -4.5,4.5c-2.49609,0 -4.5,-2.00391 -4.5,-4.5c0,-2.49609 2.00391,-4.5 4.5,-4.5zM16,25c-0.55078,0 -1,0.44922 -1,1c0,0.55078 0.44922,1 1,1c0.55078,0 1,-0.44922 1,-1c0,-0.55078 -0.44922,-1 -1,-1zM26,26c-0.55078,0 -1,0.44922 -1,1c0,0.55078 0.44922,1 1,1c0.55078,0 1,-0.44922 1,-1c0,-0.55078 -0.44922,-1 -1,-1z"></path></g></g></svg>