<svg xmlns="http://www.w3.org/2000/svg" xmlns:xlink="http://www.w3.org/1999/xlink" viewBox="0,0,256,256" width="40px" height="40px" fill-rule="nonzero"><g fill="#2ffb00" fill-rule="nonzero" stroke="none" stroke-width="1" stroke-linecap="butt" stroke-linejoin="miter" stroke-miterlimit="10" stroke-dasharray="" stroke-dashoffset="0" font-family="none" font-weight="none" font-size="none" text-anchor="none" style="mix-blend-mode: normal"><g transform="scale(5.12,5.12)"><path d="M21.41602,3c-6.51309,0 -12.48121,2.32822 -17.06055,6.17969c-0.32569,0.27349 -0.44279,0.72304 -0.29192,1.12067c0.15087,0.39763 0.53671,0.65635 0.96184,0.64496c0,0 6.35287,-0.12238 9.39648,5.24805c-1.19356,0.18679 -2.81038,0.57772 -4.78516,1.68359c-3.34322,1.8722 -7.06277,5.66922 -8.61523,12.91406c-0.08295,0.38592 0.06885,0.78453 0.3875,1.0175c0.31865,0.23297 0.74453,0.25672 1.08711,0.06062c0,0 5.64424,-3.10229 11.04688,-0.90234c-0.53292,0.56803 -1.14807,1.2699 -1.76562,2.36133c-1.41397,2.49895 -2.77734,6.52479 -2.77734,12.67188c0.00032,0.42755 0.27241,0.80761 0.67704,0.94572c0.40463,0.13811 0.85231,0.00373 1.11398,-0.3344c0,0 1.39058,-1.81359 4.45898,-3.26172c2.86346,-1.3514 7.12622,-2.34198 13.03711,-0.96875c0.36048,0.10737 0.72748,0.20133 1.10156,0.28125c0.06457,0.01763 0.12646,0.03064 0.19141,0.04883l0.00195,-0.00781c0.94084,0.1877 1.91493,0.29688 2.91797,0.29688c3.33296,0 6.41757,-0.77617 8.72852,-2.49609c2.04976,-1.52553 3.42501,-3.83318 3.71094,-6.75195c0.05238,-0.01608 0.1037,-0.02325 0.15625,-0.04102c1.905,-0.644 3.18152,-2.15791 2.85352,-3.37891c-0.16934,-0.62845 -0.73523,-1.0524 -1.5,-1.23242c0.10105,-0.43076 0.19667,-0.86947 0.27148,-1.32812c0.32274,-1.98056 0.33178,-3.7932 -0.00586,-5.27734c-0.08577,-0.37707 -0.19885,-0.74222 -0.33984,-1.08398c3.13483,-3.28987 2.59766,-8.23047 2.59766,-8.23047l-0.05859,-0.64649l-0.61328,-0.20898c-1.14788,-0.39294 -2.43231,-0.41279 -3.6582,-0.26953c-1.01926,0.11911 -1.96239,0.35081 -2.78711,0.57226c-4.79313,-5.86677 -12.1694,-9.62695 -20.43945,-9.62695zM21.41602,5c9.94266,0 18.44662,5.85451 22.14844,14.18359c-0.5114,-0.02304 -1.01645,0.07594 -1.45508,0.28906c-0.647,0.31437 -1.16566,0.8149 -1.61523,1.40234c-0.89916,1.17488 -1.5545,2.7434 -2.07422,4.40234c-0.12171,0.38862 -0.30801,0.80283 -0.52344,1.05664c-0.21543,0.25381 -0.37926,0.36914 -0.77148,0.36914c-0.29067,0 -1.125,-0.41585 -1.125,-2.19141c0.00009,-5.68705 -3.20667,-9.51172 -6.875,-9.51172c-1.99439,0 -3.61293,1.33167 -4.61328,3.16992c-1.00035,1.83825 -1.51172,4.24403 -1.51172,6.875c0,1.40568 0.22334,2.73213 0.59766,3.95313c-0.15169,-0.01225 -0.30323,-0.03139 -0.45508,-0.0293c-0.49267,0.0068 -0.98416,0.09519 -1.46094,0.30078c-0.51684,0.22284 -1.00718,0.66377 -1.28906,1.24414c-0.28189,0.58037 -0.39258,1.26222 -0.39258,2.0957c0,2.79751 1.31565,5.28906 3.42188,7.13477c-3.76245,-0.09009 -6.77639,0.73546 -9.02539,1.79688c-1.39026,0.65613 -2.29729,1.37773 -3.12891,2.04102c0.32691,-4.27666 1.22301,-7.4545 2.25,-9.26953c1.23353,-2.18005 2.3125,-2.82617 2.3125,-2.82617c0.29471,-0.18749 0.47024,-0.51516 0.46306,-0.86438c-0.00718,-0.34922 -0.19605,-0.66939 -0.49822,-0.8446c-4.71247,-2.72642 -9.54627,-1.52755 -12.20313,-0.51758c1.62357,-5.33854 4.43433,-8.18791 7.02148,-9.63672c2.90678,-1.6278 5.38672,-1.62305 5.38672,-1.62305c0.33262,0.00019 0.64356,-0.16501 0.8296,-0.44073c0.18604,-0.27573 0.22282,-0.6259 0.09813,-0.93427c-2.09239,-5.18204 -6.47724,-6.74661 -9.32031,-7.29492c3.92062,-2.68318 8.64317,-4.33008 13.80859,-4.33008zM21.88086,8l-0.30078,0.38672c-2.91648,3.7526 -0.98437,8.93945 -0.98437,8.93945l1.89063,-0.65234c0,0 -1.13713,-3.89695 0.45703,-6.56445c0.70617,0.05154 2.77262,0.31165 5.36133,2.81055l1.39062,-1.43945c-3.55467,-3.43136 -7.32617,-3.48047 -7.32617,-3.48047zM45.73242,14.12109c0.42684,-0.00538 0.83139,0.0139 1.19336,0.06445c0.01062,0.87378 -0.05364,3.00656 -1.24219,4.87109c-0.67346,-1.64538 -1.50727,-3.21112 -2.5,-4.66602c0.83021,-0.15335 1.72841,-0.25918 2.54883,-0.26953zM29.125,17c2.22367,0 4.875,2.55876 4.875,7.51172c0,2.48044 1.41567,4.19141 3.125,4.19141c0.79737,0 1.47658,-0.32843 1.97266,-0.76172c0.11238,0.50328 0.31822,0.84389 0.61328,0.91797c0.697,0.175 1.49102,-1.09492 1.91602,-3.04492c0.28911,-1.32648 0.31985,-2.49799 0.0957,-3.17578c0.11889,-0.19503 0.23817,-0.39045 0.35938,-0.54883c0.3233,-0.42244 0.64267,-0.69314 0.90039,-0.81836c0.25703,-0.12489 0.4374,-0.14587 0.72461,-0.05859c0.36725,0.11219 0.80174,0.60401 1.05664,1.72461c0.2549,1.1206 0.27369,2.72428 -0.01758,4.51172c-0.09891,0.60644 -0.2336,1.17389 -0.38281,1.7168c-0.15199,0.03774 -0.30306,0.07099 -0.45703,0.12305c-0.84508,0.28569 -1.55379,0.7473 -2.06641,1.27344c-0.75424,-0.04859 -1.45506,0.10517 -2.09961,0.3125c-1.44327,0.46425 -2.70963,1.125 -4.36523,1.125c-3.15523,0 -5.63233,-0.93452 -7.76172,-1.78125c-0.58059,-0.23087 -1.1324,-0.44894 -1.67187,-0.64453c-0.57913,-1.28343 -0.94141,-2.83482 -0.94141,-4.5293c0,-2.36403 0.48863,-4.48297 1.26953,-5.91797c0.7809,-1.435 1.72486,-2.12695 2.85547,-2.12695zM29.36328,21.10352c-0.697,-0.176 -1.59844,1.13984 -2.02344,3.08984c-0.425,1.95 -0.20091,3.55156 0.49609,3.72656c0.697,0.175 1.49102,-1.09492 1.91602,-3.04492c0.425,-1.95 0.30733,-3.59748 -0.38867,-3.77148zM23.1875,30.96484c0.27019,-0.00165 0.57985,0.04263 0.94922,0.13281c0.73873,0.18036 1.6616,0.55234 2.73828,0.98047c2.15336,0.85627 4.94723,1.92188 8.5,1.92188c2.17739,0 3.78629,-0.83916 4.97852,-1.22266c0.25552,-0.08219 0.47796,-0.13232 0.69336,-0.17187c0.00456,0.02039 0.00042,0.04227 0.00586,0.0625c0.18726,0.69707 0.86454,1.13653 1.75977,1.27539c-0.28926,2.18509 -1.2407,3.81143 -2.77734,4.95508c-1.8513,1.37783 -4.51711,2.10156 -7.53516,2.10156c-0.88996,0 -1.7455,-0.0973 -2.56445,-0.26172c-0.41288,-0.11298 -0.82018,-0.21824 -1.2207,-0.31055c-3.97008,-1.23098 -6.71484,-4.32384 -6.71484,-7.81836c0,-0.64552 0.09954,-1.03352 0.19141,-1.22266c0.09186,-0.18913 0.13904,-0.21909 0.2832,-0.28125c0.21197,-0.09141 0.4427,-0.13898 0.71289,-0.14062zM25.81055,33.44727l-1.62109,1.17383c1.92655,2.65762 5.16563,4.37891 8.81055,4.37891v-2c-3.01508,0 -5.64801,-1.42636 -7.18945,-3.55273z"></path></g></g></svg>