<svg xmlns="http://www.w3.org/2000/svg" xmlns:xlink="http://www.w3.org/1999/xlink" viewBox="0,0,256,256" width="40px" height="40px" fill-rule="nonzero"><g fill="#fbab00" fill-rule="nonzero" stroke="none" stroke-width="1" stroke-linecap="butt" stroke-linejoin="miter" stroke-miterlimit="10" stroke-dasharray="" stroke-dashoffset="0" font-family="none" font-weight="none" font-size="none" text-anchor="none" style="mix-blend-mode: normal"><g transform="scale(5.12,5.12)"><path d="M25.09375,2c-6.5,0 -11.30859,3.65625 -14.4375,7.75c-1.56641,2.04688 -2.72266,4.22656 -3.5,6.15625c-0.77734,1.92969 -1.1875,3.57031 -1.1875,4.8125c0,2.01172 0.40234,3.58984 0.84375,4.65625c0.01563,0.03906 0.04688,0.05859 0.0625,0.09375c-0.64062,0.21484 -1.16797,0.71094 -1.53125,1.34375c-0.48437,0.84375 -0.75,1.95313 -0.75,3.3125c0,2.10547 0.75781,4.17969 1.78125,5.78125c1.02344,1.60156 2.28516,2.90625 3.9375,2.90625c0.03125,0 0.0625,0 0.09375,0c0.55078,1.84766 1.56641,3.20703 2.71875,4.15625c1.69922,1.39844 3.65625,2.05859 4.5,2.5c2.04297,1.07031 3.50391,2.53125 7.375,2.53125c3.875,0 5.33203,-1.46484 7.375,-2.53125c0.84766,-0.44141 2.80078,-1.10156 4.5,-2.5c1.15234,-0.94922 2.16797,-2.30859 2.71875,-4.15625c0.03125,0 0.0625,0 0.09375,0c1.65234,0 2.91406,-1.30469 3.9375,-2.90625c1.02344,-1.60156 1.78125,-3.67578 1.78125,-5.78125c0,-1.35937 -0.26562,-2.46875 -0.75,-3.3125c-0.35156,-0.60937 -0.85547,-1.08594 -1.46875,-1.3125c0.01172,-0.03125 0.01953,-0.05859 0.03125,-0.09375c0.42578,-1.06641 0.8125,-2.64062 0.8125,-4.8125c0,-1.27344 -0.39844,-2.95312 -1.1875,-4.875c-0.78906,-1.92187 -1.96484,-4.03906 -3.53125,-6.0625c-3.12891,-4.04297 -7.92578,-7.65625 -14.21875,-7.65625zM25.09375,4c5.53516,0 9.74219,3.14844 12.625,6.875c1.44141,1.86328 2.52734,3.86328 3.25,5.625c0.72266,1.76172 1.0625,3.31641 1.0625,4.09375c0,1.92578 -0.35156,3.25391 -0.6875,4.09375c-0.15625,0.39063 -0.27734,0.64063 -0.375,0.8125c-0.52734,0.11328 -1.09766,0.30469 -1.65625,0.59375c0.16406,-0.59375 0.36328,-1.14453 0.53125,-1.5625c0.18359,-0.23828 1.15625,-1.58203 1.15625,-3.53125c0,-0.46484 -0.08594,-0.61328 -0.21875,-0.9375c-0.13281,-0.32422 -0.32812,-0.69141 -0.59375,-1.125c-0.53125,-0.86719 -1.37109,-1.9375 -2.59375,-2.96875c-2.44531,-2.0625 -6.46094,-3.96875 -12.59375,-3.96875c-6.13281,0 -10.14844,1.90625 -12.59375,3.96875c-1.22266,1.03125 -2.0625,2.10156 -2.59375,2.96875c-0.26562,0.43359 -0.46094,0.80078 -0.59375,1.125c-0.13281,0.32422 -0.21875,0.47266 -0.21875,0.9375c0,1.80078 0.82031,3.08984 1.09375,3.46875c0.17188,0.41406 0.38281,0.98438 0.5625,1.59375c-0.51953,-0.26172 -1.03906,-0.41406 -1.53125,-0.53125c-0.11328,-0.19922 -0.26172,-0.50781 -0.4375,-0.9375c-0.35547,-0.85547 -0.71875,-2.14453 -0.71875,-3.875c0,-0.75 0.32031,-2.29297 1.03125,-4.0625c0.71094,-1.76953 1.77734,-3.80078 3.21875,-5.6875c2.88281,-3.76953 7.12109,-6.96875 12.875,-6.96875zM27,5.6875l-2.03125,2.0625l-1.9375,-2.03125c0,0 -2.79297,5.18359 -2.75,5.3125c0.04297,0.12891 1.6875,1.03125 1.6875,1.03125l1.28125,-4.28125l1.8125,2.0625l1.625,-2l1.34375,4.28125l1.6875,-1.09375zM25,14c5.72266,0 9.21875,1.73438 11.3125,3.5c1.04688,0.88281 1.73047,1.77344 2.15625,2.46875c0.21484,0.34766 0.35156,0.66406 0.4375,0.875c0.04297,0.10547 0.08203,0.19922 0.09375,0.25c-0.01562,0.58594 -0.17969,1.08203 -0.34375,1.46875c-1.26172,-1.03125 -5.90234,-4.5625 -13.65625,-4.5625c-7.75391,0 -12.39453,3.53125 -13.65625,4.5625c-0.16406,-0.38672 -0.32812,-0.88281 -0.34375,-1.46875c0.01172,-0.05078 0.05078,-0.14453 0.09375,-0.25c0.08594,-0.21094 0.22266,-0.52734 0.4375,-0.875c0.42578,-0.69531 1.10938,-1.58594 2.15625,-2.46875c2.09375,-1.76562 5.58984,-3.5 11.3125,-3.5zM25,20c1.99219,0 3.80078,0.28906 5.40625,0.71875c-2.25781,0.67188 -3.3125,2.84375 -3.3125,2.84375c-0.24219,0.5 -0.03125,1.10156 0.46875,1.34375c0.5,0.24219 1.10156,0.03125 1.34375,-0.46875c0,0 0.94531,-1.90625 2.875,-1.90625c1.24219,0 2.5625,1.03125 2.5625,1.03125c0.25781,0.22266 0.61328,0.30078 0.94141,0.20703c0.32813,-0.09375 0.58594,-0.34766 0.68359,-0.67578c0.96094,0.57813 1.44531,0.92188 1.8125,1.21875c-0.36719,0.95703 -0.78125,2.28125 -0.78125,3.59375c0,0.92969 0.27734,2.30469 0.53125,3.84375c0.25391,1.53906 0.5,3.18359 0.5,4.09375c0,2.92969 -1.08984,4.48438 -2.4375,5.59375c-1.34766,1.10938 -2.96484,1.64453 -4.125,2.25c-2.34375,1.22656 -3.06641,2.3125 -6.46875,2.3125c-3.40234,0 -4.125,-1.08594 -6.46875,-2.3125c-1.16016,-0.60547 -2.77734,-1.14062 -4.125,-2.25c-1.34766,-1.10937 -2.4375,-2.66406 -2.4375,-5.59375c0,-0.91016 0.24609,-2.55469 0.5,-4.09375c0.25391,-1.53906 0.53125,-2.91406 0.53125,-3.84375c0,-1.3125 -0.41406,-2.63672 -0.78125,-3.59375c0.39844,-0.30469 0.98047,-0.69922 1.84375,-1.21875c0.10156,0.31641 0.35547,0.55859 0.67188,0.65234c0.32031,0.09375 0.66406,0.02734 0.92188,-0.18359c0,0 1.32031,-1.03125 2.5625,-1.03125c1.92969,0 2.875,1.90625 2.875,1.90625c0.24219,0.5 0.84375,0.71094 1.34375,0.46875c0.5,-0.24219 0.71094,-0.84375 0.46875,-1.34375c0,0 -1.05469,-2.17187 -3.3125,-2.84375c1.60547,-0.42969 3.41406,-0.71875 5.40625,-0.71875zM19.5,26c-0.82812,0 -1.5,1.09766 -1.5,2.46875c0,1.12109 0.44531,2.0625 1.0625,2.375c-0.65625,0.90625 -1.0625,1.98047 -1.0625,3.15625c0,0.24609 0.03125,0.48047 0.0625,0.71875c-3.43359,-0.86328 -3.8125,-2.25 -3.8125,-2.25c0,0 -0.6875,0.50391 -0.6875,2.8125c0,2.71875 2.21875,2.84375 2.21875,2.84375c0,0 0.25,2.65625 2.59375,2.65625c1.01172,0 1.57813,-0.43359 1.65625,-0.46875c0.13281,0.13281 1.20313,1.6875 2.8125,1.6875c1.25,0 2.125,-0.75 2.125,-0.75c0,0 0.98047,0.71875 2.3125,0.71875c1.51172,0 2.6875,-1.625 2.6875,-1.625c0,0 0.57422,0.4375 1.71875,0.4375c1.14453,0 2.30469,-0.82031 2.59375,-2.6875c0.93359,0 2.15625,-1.17187 2.15625,-2.71875c0,-2.31641 -0.6875,-2.875 -0.6875,-2.875c-0.76562,1.08594 -2.00781,1.76563 -3.8125,2.21875c0.03125,-0.23828 0.0625,-0.47266 0.0625,-0.71875c0,-1.17578 -0.40625,-2.25 -1.0625,-3.15625c0.61719,-0.30859 1.0625,-1.25391 1.0625,-2.375c0,-1.37109 -0.67187,-2.46875 -1.5,-2.46875c-0.82812,0 -1.5,1.09766 -1.5,2.46875c0,0.23047 0.02734,0.44531 0.0625,0.65625c-1.16016,-0.70703 -2.56641,-1.125 -4.0625,-1.125c-1.49609,0 -2.90234,0.41797 -4.0625,1.125c0.03516,-0.21094 0.0625,-0.42578 0.0625,-0.65625c0,-1.37109 -0.67187,-2.46875 -1.5,-2.46875zM7.5625,27.34375c0.83984,0 2.25391,0.29688 3.34375,1.375c-0.08984,0.69141 -0.22656,1.61719 -0.40625,2.6875c-0.25781,1.55078 -0.53125,3.20703 -0.53125,4.4375c0,0.30078 0.01172,0.58984 0.03125,0.875c-0.47266,-0.21484 -1.27734,-0.83984 -1.9375,-1.875c-0.83594,-1.30469 -1.46875,-3.10156 -1.46875,-4.71875c0,-1.09375 0.21875,-1.87891 0.46875,-2.3125c0.25,-0.43359 0.44531,-0.46875 0.5,-0.46875zM42.4375,27.34375c0.05469,0 0.25,0.03516 0.5,0.46875c0.25,0.43359 0.46875,1.21875 0.46875,2.3125c0,1.61719 -0.63281,3.41406 -1.46875,4.71875c-0.66016,1.03516 -1.46484,1.66016 -1.9375,1.875c0.01953,-0.28516 0.03125,-0.57422 0.03125,-0.875c0,-1.23047 -0.27344,-2.88672 -0.53125,-4.4375c-0.17969,-1.07031 -0.31641,-1.99609 -0.40625,-2.6875c1.08984,-1.07812 2.50391,-1.375 3.34375,-1.375zM25,30c2.86328,0 5,1.88672 5,4c0,2.11328 -2.13672,4 -5,4c-2.86328,0 -5,-1.88672 -5,-4c0,-2.11328 2.13672,-4 5,-4z"></path></g></g></svg>