<svg xmlns="http://www.w3.org/2000/svg" xmlns:xlink="http://www.w3.org/1999/xlink" viewBox="0,0,256,256" width="20px" height="20px" fill-rule="nonzero"><g fill="#000000" fill-rule="nonzero" stroke="none" stroke-width="1" stroke-linecap="butt" stroke-linejoin="miter" stroke-miterlimit="10" stroke-dasharray="" stroke-dashoffset="0" font-family="none" font-weight="none" font-size="none" text-anchor="none" style="mix-blend-mode: normal"><g transform="scale(5.12,5.12)"><path d="M23,3c-0.91406,0 -1.37891,0.48438 -1.94141,0.97656c-0.5625,0.49219 -1.13281,1.10937 -1.66797,1.72656c-0.53516,0.62109 -1.03125,1.24609 -1.42187,1.73828c-0.18359,0.23438 -0.34375,0.43359 -0.46484,0.58984c-0.16797,-0.01562 -0.37109,-0.03516 -0.65234,-0.07812c-0.68359,-0.10937 -1.62109,-0.28516 -2.61328,-0.46094c-0.99219,-0.17578 -2.03516,-0.35547 -2.98047,-0.46094c-0.94531,-0.10547 -1.73828,-0.17969 -2.48437,-0.00781c-0.36328,0.08594 -0.64844,0.36719 -0.74219,0.72656c-0.55469,2.14844 -0.34766,4.91016 -0.04687,8.04297c-0.07422,0.0625 -0.16016,0.14453 -0.32031,0.25781c-0.41406,0.29297 -1.04297,0.66016 -1.68359,1.03906c-0.64062,0.37891 -1.29687,0.76172 -1.83984,1.16797c-0.26953,0.20313 -0.51562,0.40625 -0.73047,0.66797c-0.21484,0.26172 -0.46875,0.64063 -0.40234,1.19141c0.00781,0.06641 0.01953,0.12891 0.03906,0.19531c0.59375,1.8125 1.94141,3.375 3.125,4.54688c0.89063,0.88281 1.55859,1.41406 1.90625,1.6875c-0.04687,0.3125 -0.07812,0.62891 -0.07812,0.95313c0,2.18359 1.08984,4.11328 2.75,5.29688c-0.58594,0.53906 -1.12109,0.98828 -1.54687,1.35156c-0.28125,0.23828 -0.52734,0.45313 -0.75,0.71875c-0.21875,0.26563 -0.45312,0.64453 -0.45312,1.13281c0,1.35938 0.98828,2.49219 2.51563,3.41797c1.33594,0.80859 3.17578,1.41406 5.48438,1.55078c0,0.03125 0,0.0625 0,0.09375c0,0 0.03516,0.69141 0.41406,1.40625c0.37891,0.71094 1.28516,1.51953 2.57031,1.52734c0.01172,0.03125 0.02734,0.06641 0.02734,0.07031l-0.01172,1.92969c-0.00781,0.35938 0.17969,0.69531 0.49219,0.87891c0.30859,0.18359 0.69531,0.18359 1.00781,0.00391c0.3125,-0.17969 0.50391,-0.51172 0.5,-0.875l0.01172,-2c0,-0.02344 0,-0.05078 -0.00391,-0.07812c0,0 -0.01953,-0.44141 -0.27344,-0.90234c-0.25,-0.46094 -0.91016,-1.02344 -1.73437,-1.02344c-0.58203,0 -0.66797,-0.18359 -0.82031,-0.46875c-0.13281,-0.25 -0.16797,-0.48437 -0.17578,-0.54687c3.28125,-0.04297 5.56641,-0.26172 7.02344,-0.5c1.06641,-0.17187 1.62891,-0.32812 1.97266,-0.4375c0.03516,0.53516 0.48438,0.94531 1.02344,0.93359c0.53516,-0.01172 0.96875,-0.44531 0.97656,-0.98047c0,-2.59766 -2.51562,-3.875 -2.51562,-3.875c-0.14844,-0.08203 -0.3125,-0.12891 -0.48047,-0.12891c-0.46094,-0.00781 -0.86328,0.30078 -0.98047,0.74609c-0.11719,0.44531 0.08984,0.91406 0.49219,1.13281c0,0 0.22266,0.15625 0.47266,0.375c-0.29297,0.07422 -0.65234,0.16016 -1.28125,0.26563c-1.48047,0.23828 -3.92969,0.48438 -7.70703,0.48438c-2.46484,0 -4.28906,-0.58984 -5.45312,-1.29687c-1.07812,-0.65234 -1.44531,-1.39453 -1.5,-1.60937c0.08594,-0.09375 0.22656,-0.23047 0.45313,-0.42187c0.5,-0.42578 1.28125,-1.04297 2.17578,-1.9375c0.32813,0.09766 0.66797,0.16406 1.01172,0.20703c0.42188,0.61328 1.01563,1.05859 1.8125,1.05859h1.5c0.35938,0.00391 0.69531,-0.18359 0.87891,-0.49609c0.17969,-0.3125 0.17969,-0.69531 0,-1.00781c-0.18359,-0.3125 -0.51953,-0.5 -0.87891,-0.49609h-1.5c-0.28125,0 -0.5,-0.21875 -0.5,-0.5c0,-0.28125 0.21875,-0.5 0.5,-0.5h4c0.09766,0 0.19531,-0.01172 0.28906,-0.03906c1.1875,1.25 2.85938,2.03906 4.71094,2.03906c3.17188,0 5.82031,-2.29687 6.38672,-5.30859c0.03125,0.00781 0.04297,0.00781 0.07422,0.01563c0.38281,0.11328 0.69141,0.23047 0.69141,0.23047c0.51563,0.19141 1.09375,-0.07031 1.28516,-0.58594c0.19141,-0.51953 -0.07031,-1.09766 -0.58984,-1.28906c0,0 -0.35937,-0.13281 -0.8125,-0.26953c-0.1875,-0.05859 -0.39453,-0.11328 -0.60156,-0.16406c-0.08594,-0.64062 -0.26562,-1.25391 -0.52734,-1.82031c0.15625,-0.16016 0.34375,-0.33594 0.51563,-0.48437c0.35547,-0.29687 0.65234,-0.50781 0.65234,-0.50781c0.35547,-0.24219 0.51563,-0.68359 0.39844,-1.09766c-0.11719,-0.41406 -0.48437,-0.70703 -0.91406,-0.72656c-0.03516,0 -0.07031,0 -0.10156,0c-0.19141,0.01172 -0.375,0.07813 -0.53125,0.19141c0,0 -0.36328,0.25391 -0.78516,0.60938c-0.11719,0.09375 -0.24219,0.21484 -0.35937,0.32031c-0.42969,-0.46484 -0.92187,-0.86719 -1.46875,-1.19141c0.46875,-0.77344 0.90234,-1.21875 0.90234,-1.21875c0.29297,-0.29297 0.375,-0.73047 0.21484,-1.10937c-0.16406,-0.37891 -0.54297,-0.61719 -0.95703,-0.60547c-0.26172,0.01172 -0.50781,0.12109 -0.6875,0.30859c0,0 -0.67969,0.72266 -1.33203,1.875c-0.46875,-0.10937 -0.95312,-0.17187 -1.45312,-0.17187c-0.13672,0 -0.27344,0.01563 -0.40625,0.02344c-0.05859,-0.23437 -0.11719,-0.53125 -0.12891,-0.82031c-0.02344,-0.58984 0.03125,-1.09766 0.03125,-1.09766c0.03125,-0.28516 -0.05859,-0.57031 -0.25,-0.78516c-0.19141,-0.21484 -0.46484,-0.33594 -0.75391,-0.33594c-0.51172,0.00781 -0.9375,0.39844 -0.98828,0.91016c0,0 -0.06641,0.63281 -0.03516,1.38672c0.01172,0.375 0.02734,0.78125 0.11328,1.19922c-1.00781,0.40625 -1.89844,1.05469 -2.58594,1.88281c-0.13672,-0.16406 -0.28516,-0.32422 -0.4375,-0.47266c0.18359,-0.70312 0.62109,-1.15625 0.62109,-1.15625c0.30859,-0.27734 0.41406,-0.71094 0.26563,-1.09766c-0.14453,-0.38672 -0.51172,-0.64453 -0.92578,-0.64844c-0.26172,0 -0.51172,0.09766 -0.69922,0.27734c0,0 -0.5625,0.51953 -0.96094,1.40625c-0.77734,-0.38281 -1.64062,-0.60937 -2.55078,-0.65625c-0.08984,-0.49219 -0.16016,-1.12109 0.06641,-1.53125c0.17969,-0.3125 0.17578,-0.69531 -0.00781,-1.00391c-0.17969,-0.30859 -0.51562,-0.49609 -0.87109,-0.49219c-0.36719,0.00391 -0.69922,0.20703 -0.87109,0.52734c-0.54297,0.98438 -0.51562,1.98828 -0.37891,2.73438c-0.60156,0.16797 -1.16797,0.42188 -1.68359,0.75c-0.03125,-0.00391 -0.11719,-0.01953 -0.32812,-0.14844c-0.24609,-0.15234 -0.5625,-0.42187 -0.77734,-1.13672c-0.12109,-0.43359 -0.51953,-0.73047 -0.96484,-0.73047c-0.32031,0.00391 -0.61719,0.15625 -0.80469,0.41406c-0.1875,0.25391 -0.23828,0.58594 -0.14453,0.88672c0.30859,1.02344 0.875,1.69922 1.42578,2.10547c-0.27734,0.34375 -0.52344,0.71484 -0.72656,1.10938c-0.33984,-0.28516 -0.73047,-0.63281 -1.16406,-1.0625c-0.97266,-0.96484 -1.95312,-2.24219 -2.4375,-3.40625c0.06641,-0.05859 0.09766,-0.09766 0.19922,-0.17187c0.39844,-0.30078 1.01953,-0.67187 1.65234,-1.04687c0.63672,-0.375 1.28906,-0.74609 1.82422,-1.125c0.26953,-0.19141 0.50781,-0.37891 0.72656,-0.61719c0.21875,-0.23828 0.51172,-0.57422 0.45313,-1.16406c-0.27734,-2.86328 -0.35547,-5.23437 -0.08984,-6.91406c0.34375,-0.00781 0.58984,-0.03516 1.125,0.02344c0.85938,0.10156 1.87891,0.26953 2.85547,0.44531c0.97656,0.17578 1.91406,0.35156 2.66016,0.46875c0.37109,0.05469 0.69141,0.09766 0.98047,0.11719c0.14063,0.00781 0.27344,0.01172 0.4375,-0.00391c0.16016,-0.01953 0.38281,0.02344 0.74219,-0.33594c0.14844,-0.14844 0.21094,-0.24219 0.34375,-0.41016c0.13281,-0.16406 0.29688,-0.375 0.48828,-0.61719c0.37891,-0.48047 0.86328,-1.08203 1.36719,-1.66406c0.5,-0.58594 1.03125,-1.14844 1.46875,-1.53516c0.32422,-0.28125 0.64063,-0.40625 0.6875,-0.45312c0.0625,0.02344 0.15234,0.07422 0.3125,0.20703c0.26172,0.21094 0.60547,0.58594 0.99219,1.04688c0.76953,0.92969 1.71875,2.21875 2.92578,3.42578c0.31641,0.31641 0.80859,0.38672 1.19922,0.16406c0,0 1.73438,-0.98047 3.56641,-1.82812c0.91406,-0.42578 1.85938,-0.8125 2.56641,-1.02344c0.31641,-0.09375 0.55859,-0.13672 0.72266,-0.15234c0.01953,0.04297 0.00391,0.00391 0.02344,0.06641c0.07031,0.21484 0.14453,0.53125 0.20703,0.89844c0.12891,0.73438 0.22266,1.67969 0.28516,2.60156c0.12891,1.83594 0.13672,3.57031 0.13672,3.57031c0,0.45703 0.3125,0.85547 0.75781,0.96484c0,0 1.71875,0.43359 3.41797,1.01172c0.85156,0.28516 1.69922,0.61719 2.27344,0.91016c0.23438,0.125 0.37891,0.22656 0.48828,0.30859c-0.03516,0.10938 -0.10937,0.48438 -0.33594,1.05469c-0.26953,0.68359 -0.63672,1.50391 -1.00781,2.28906c-0.73828,1.57031 -1.48047,2.99219 -1.48047,2.99219c-0.23437,0.45313 -0.09375,1.00781 0.32422,1.29297c0,0 1.23438,0.83594 2.44531,1.84766c0.60547,0.50781 1.20313,1.05859 1.60547,1.53125c0.29297,0.34375 0.42578,0.66016 0.48047,0.75c-0.05469,0.07813 -0.18359,0.32422 -0.46484,0.58984c-0.39844,0.375 -0.98437,0.80469 -1.57422,1.1875c-1.18359,0.77344 -2.37891,1.37109 -2.37891,1.37109c-0.44531,0.22266 -0.65625,0.74219 -0.5,1.21094c0,0 0.35547,1.05469 0.64844,2.17578c0.14844,0.5625 0.27734,1.14063 0.34375,1.57422c0.01563,0.12891 0.01563,0.19922 0.02344,0.29297c-0.08203,0.02734 -0.13672,0.05078 -0.25,0.07813c-0.42578,0.10547 -1.01953,0.21094 -1.60156,0.29688c-1.16797,0.17188 -2.30469,0.26953 -2.30469,0.26953c-0.42187,0.03906 -0.77734,0.33984 -0.87891,0.75391l-0.70312,2.79297c-0.80469,-0.35156 -1.85547,-0.79297 -2.60937,-1.28125c0.03516,-0.13672 0.07813,-0.32031 0.10547,-0.40625c0.28516,-0.02734 0.34375,0.02344 0.73828,-0.11328c0.85938,-0.30078 1.92578,-1.04687 2.38672,-2.43359c0.42969,-1.28906 0.24219,-2.50391 -0.43359,-3.27344c-0.67578,-0.76953 -1.63281,-1.04297 -2.51562,-1.04297c-1.82812,0 -2.82812,1.4375 -2.82812,1.4375c-0.20703,0.29688 -0.23828,0.68359 -0.08203,1.00781c0.15625,0.32422 0.47656,0.53906 0.83594,0.5625c0.35938,0.02734 0.70313,-0.14453 0.90234,-0.44531c0,0 0.35156,-0.5625 1.17188,-0.5625c0.44141,0 0.83984,0.16016 1.01172,0.35938c0.17188,0.19922 0.32031,0.48438 0.03906,1.32422c-0.25781,0.76953 -0.69141,1.01953 -1.14844,1.17969c-0.46094,0.16016 -0.83594,0.13672 -0.83594,0.13672c-0.46094,-0.03125 -0.88672,0.26172 -1.02344,0.70703c0,0 -1.04297,3.40234 -1.04297,7.29297c-0.00391,0.35938 0.18359,0.69531 0.49609,0.87891c0.3125,0.17969 0.69531,0.17969 1.00781,0c0.3125,-0.18359 0.5,-0.51953 0.49609,-0.87891c0,-1.40234 0.13672,-2.63672 0.29688,-3.66016c1.49219,0.84766 3.32813,1.58594 3.32813,1.58594c0.26563,0.10938 0.57031,0.09766 0.82813,-0.03516c0.25781,-0.12891 0.44531,-0.36719 0.51563,-0.64844l0.83203,-3.33203c0.42188,-0.03906 0.83203,-0.07031 1.70313,-0.19531c0.62109,-0.09375 1.25391,-0.20312 1.79688,-0.33984c0.27344,-0.06641 0.52344,-0.13672 0.76172,-0.23828c0.23828,-0.10156 0.5,-0.16016 0.78125,-0.60156c0.24609,-0.38672 0.23438,-0.66406 0.23828,-0.9375c0.00781,-0.26953 -0.01953,-0.53516 -0.0625,-0.81641c-0.08203,-0.57031 -0.23047,-1.19531 -0.38672,-1.79687c-0.20703,-0.78906 -0.31641,-1.09375 -0.44922,-1.51172c0.44531,-0.23437 0.90625,-0.45312 1.83594,-1.05859c0.65234,-0.42187 1.3125,-0.89844 1.85938,-1.41406c0.54688,-0.51953 1.08203,-1.05078 1.12109,-1.95703c0.03906,-0.94531 -0.46875,-1.52344 -0.99609,-2.13672c-0.52344,-0.61719 -1.18359,-1.21484 -1.83594,-1.76562c-0.95312,-0.79687 -1.46094,-1.12891 -1.90234,-1.4375c0.24609,-0.48047 0.56641,-1.09375 1.14063,-2.30859c0.37891,-0.80859 0.76172,-1.66016 1.05469,-2.41016c0.29297,-0.74609 0.53906,-1.27344 0.53906,-1.98437c0,-0.62109 -0.35156,-0.98437 -0.64062,-1.23828c-0.29297,-0.25781 -0.625,-0.45312 -0.99609,-0.64844c-0.73828,-0.38281 -1.64062,-0.72266 -2.53906,-1.03125c-1.43359,-0.48437 -2.33203,-0.70312 -2.85156,-0.83594c-0.00781,-0.52344 -0.00781,-1.42187 -0.11328,-2.94922c-0.0625,-0.96094 -0.16016,-1.95703 -0.30859,-2.8125c-0.07422,-0.42578 -0.16406,-0.81641 -0.28125,-1.17187c-0.11328,-0.35937 -0.23047,-0.6875 -0.5625,-1.01953c-0.45703,-0.45703 -0.96875,-0.46484 -1.38281,-0.44141c-0.41797,0.02344 -0.82812,0.12109 -1.26562,0.25c-0.88281,0.26172 -1.87891,0.67969 -2.83984,1.125c-1.54297,0.71875 -2.45703,1.23828 -2.97266,1.52344c-0.85156,-0.92578 -1.64453,-1.90625 -2.33984,-2.74219c-0.41406,-0.50391 -0.8125,-0.95312 -1.25391,-1.32031c-0.44531,-0.36328 -0.98047,-0.6875 -1.65234,-0.6875zM30,46c0,-0.55078 -0.44922,-1 -1,-1c-0.55078,0 -1,0.44922 -1,1c0,0.55078 0.44922,1 1,1c0.55078,0 1,-0.44922 1,-1zM14.5,23c1.67969,0 3.12891,0.92188 3.90234,2.27734c-0.25391,0.69531 -0.40234,1.44141 -0.40234,2.22266c0,0.88672 0.17969,1.73047 0.5,2.5h-3c-1.11328,0 -2.05469,0.75 -2.375,1.76563c-1.8125,-0.57812 -3.125,-2.25 -3.125,-4.26562c0,-2.34375 1.77344,-4.23047 4.05469,-4.45312c0.04688,-0.00391 0.08984,-0.00781 0.13281,-0.01562c0.10547,-0.00781 0.20703,-0.03125 0.3125,-0.03125zM24.5,23c2.46484,0 4.44141,1.95703 4.48828,4.41016c-0.00391,0.05859 -0.00391,0.12109 0,0.18359c-0.04687,2.44922 -2.02344,4.40625 -4.48828,4.40625c-2.49609,0 -4.5,-2.00391 -4.5,-4.5c0,-2.49609 2.00391,-4.5 4.5,-4.5zM13,27c-0.55078,0 -1,0.44922 -1,1c0,0.55078 0.44922,1 1,1c0.55078,0 1,-0.44922 1,-1c0,-0.55078 -0.44922,-1 -1,-1zM25,27c-0.55078,0 -1,0.44922 -1,1c0,0.55078 0.44922,1 1,1c0.55078,0 1,-0.44922 1,-1c0,-0.55078 -0.44922,-1 -1,-1zM23,45c-0.55078,0 -1,0.44922 -1,1c0,0.55078 0.44922,1 1,1c0.55078,0 1,-0.44922 1,-1c0,-0.55078 -0.44922,-1 -1,-1zM26,45c-0.55078,0 -1,0.44922 -1,1c0,0.55078 0.44922,1 1,1c0.55078,0 1,-0.44922 1,-1c0,-0.55078 -0.44922,-1 -1,-1z"></path></g></g></svg>